<?xml version="1.0" standalone="no"?>
<!DOCTYPE svg PUBLIC "-//W3C//DTD SVG 20010904//EN"
 "http://www.w3.org/TR/2001/REC-SVG-20010904/DTD/svg10.dtd">
<svg version="1.0" xmlns="http://www.w3.org/2000/svg"
 width="114.000000pt" height="54.000000pt" viewBox="0 0 114.000000 54.000000"
 preserveAspectRatio="xMidYMid meet">
<metadata>
Created by potrace 1.10, written by Peter Selinger 2001-2011
</metadata>
<g transform="translate(0.000000,54.000000) scale(0.100000,-0.100000)"
fill="#000000" stroke="none">
<path d="M245 393 c-11 -3 -24 -9 -29 -13 -11 -11 1 -60 15 -60 6 0 8 9 4 20
-5 15 1 22 31 35 20 8 38 14 40 13 2 -3 -30 -75 -74 -166 -48 -96 -115 -145
-129 -92 -3 11 -9 20 -14 20 -4 0 -3 -13 2 -30 10 -28 23 -35 59 -31 26 3 86
78 103 128 l16 48 0 -36 c1 -59 48 -86 127 -74 76 11 144 86 144 159 0 27 3
34 15 30 9 -4 15 -1 15 7 0 13 77 45 86 36 3 -2 -16 -41 -41 -86 -25 -45 -45
-85 -45 -89 0 -4 -12 -20 -27 -37 -22 -23 -23 -27 -8 -20 23 9 39 9 77 0 87
-22 183 60 134 114 -15 16 -15 19 4 36 27 24 26 71 -1 86 -33 17 -178 8 -193
-12 -11 -15 -14 -15 -36 3 -20 16 -36 19 -84 16 -55 -4 -62 -8 -102 -51 -24
-25 -44 -44 -44 -41 0 15 33 65 52 78 22 15 21 16 -27 15 -28 -1 -59 -3 -70
-6z m253 -19 c26 -18 28 -50 7 -101 -22 -51 -43 -72 -93 -94 -39 -17 -47 -17
-78 -4 -33 14 -39 25 -34 70 3 32 47 93 88 119 43 29 79 32 110 10z m236 1
c12 -12 13 -22 5 -43 -12 -32 -26 -42 -61 -42 -15 0 -30 -4 -33 -10 -4 -6 12
-10 39 -10 40 0 46 -3 46 -21 0 -32 -17 -56 -51 -73 -40 -20 -63 -20 -79 -1
-10 13 -6 29 25 93 35 73 69 122 86 122 4 0 14 -7 23 -15z"/>
<path d="M888 383 c-29 -35 -29 -44 1 -97 17 -29 31 -62 31 -73 0 -24 -30 -53
-54 -53 -30 0 -66 31 -66 56 0 13 -4 24 -10 24 -5 0 -10 -16 -10 -35 0 -40 23
-57 77 -57 84 0 113 74 59 145 -30 39 -31 74 -3 91 23 15 53 -5 50 -33 -4 -30
15 -26 23 5 4 17 2 29 -7 35 -24 15 -75 10 -91 -8z"/>
</g>
</svg>
