 <svg  version="1.0" xmlns="http://www.w3.org/2000/svg"  width="114.000000pt" height="54.000000pt" viewBox="0 0 114.000000 54.000000"  preserveAspectRatio="xMidYMid meet">  <g transform="translate(0.000000,54.000000) scale(0.100000,-0.100000)" fill="#356524" stroke="none"> <path d="M245 393 c-11 -3 -24 -9 -29 -13 -11 -11 1 -60 15 -60 6 0 8 9 4 20 -5 15 1 22 31 35 20 8 38 14 40 13 1 -2 -8 -25 -21 -53 -13 -27 -36 -77 -51 -110 -44 -96 -117 -149 -131 -95 -3 11 -9 20 -14 20 -16 0 12 -58 31 -63 42 -11 116 69 135 146 10 39 27 34 20 -6 -10 -49 21 -72 96 -72 49 1 64 5 96 31 70 56 96 151 53 194 -24 24 -97 27 -138 6 -33 -17 -77 -66 -87 -95 -4 -13 -9 -20 -11 -18 -10 10 30 88 54 107 l25 20 -49 -1 c-27 -1 -58 -3 -69 -6z m257 -20 c23 -21 23 -64 -1 -111 -24 -47 -46 -66 -98 -87 -37 -15 -44 -15 -71 -1 -35 18 -42 32 -35 72 7 35 64 108 101 128 37 19 82 19 104 -1z"/> <path d="M573 390 c-25 -10 -29 -26 -13 -50 8 -12 10 -12 10 5 0 15 11 24 41 33 23 7 43 11 46 8 2 -2 -16 -40 -41 -85 -25 -44 -46 -84 -46 -88 -1 -12 -34 -49 -50 -57 -8 -3 -4 -3 10 0 14 3 34 5 45 4 106 -9 126 -6 156 28 33 37 37 66 12 81 -17 9 -16 11 5 33 27 30 29 74 3 88 -24 12 -147 12 -178 0z m166 -17 c10 -19 -3 -63 -22 -75 -7 -4 -24 -8 -39 -8 -15 0 -30 -4 -33 -10 -4 -6 12 -10 40 -10 46 0 46 0 43 -32 -2 -24 -12 -38 -37 -55 -39 -26 -68 -29 -95 -8 -18 14 -18 16 -3 33 9 10 17 23 17 28 0 12 35 79 63 121 24 36 51 42 66 16z"/> <path d="M888 383 c-29 -34 -28 -42 2 -96 35 -62 37 -87 12 -110 -40 -36 -107 -6 -100 45 3 17 0 27 -6 25 -6 -2 -11 -21 -11 -43 0 -36 3 -40 35 -50 42 -14 88 -3 113 27 24 30 22 49 -13 100 -16 24 -30 54 -30 65 0 30 25 48 56 40 22 -6 25 -10 19 -38 -9 -38 10 -30 19 8 5 18 3 30 -6 35 -23 15 -74 10 -90 -8z"/> </g> </svg> 